<svg xmlns="http://www.w3.org/2000/svg" xmlns:xlink="http://www.w3.org/1999/xlink" version="1.1" x="0px" y="0px" viewBox="0 0 100 125" enable-background="new 0 0 100 100" xml:space="preserve"><path d="M93.334,11.303l-0.919-1.312l-5.327,9.634c-0.235,0.022-0.479,0.033-0.733,0.033c-2.866,0-5.516-1.645-6.781-4.196  l5.336-9.663l-1.604-0.078c-3.673-0.171-7.284,1.211-9.885,3.811c-1.81,1.81-3.005,4.145-3.671,6.594  c-0.377,1.388-1.723,5.417-1.723,5.417c-0.95,2.694-2.332,4.959-4.106,6.734l-26,26c-0.8,0.8-1.7,1.529-2.675,2.168  c-2.133,1.397-4.7,2.28-7.633,2.625c0,0-2.721,0.209-3.551,0.244c-4.95,0.209-9.556,1.919-13.07,5.434  c-6.436,6.435-7.104,16.702-1.554,23.88l0.931,1.208l8.398-15.194c4.77-0.568,9.393,2.061,11.441,6.336l0.02,0.077l-8.146,14.803  L23.773,96c0.016,0,0.03,0,0.046,0c4.84,0,9.395-1.84,12.826-5.271c3.421-3.41,5.339-8.26,5.495-12.854  c0.045-1.312,0.234-3.824,0.234-3.824c0.328-2.94,1.211-5.611,2.625-7.751c0.64-0.968,1.373-1.915,2.179-2.72l25.999-26.023  c1.829-1.829,4.157-3.288,6.725-4.195c0,0,4.046-1.396,5.379-1.752c2.529-0.676,4.741-1.78,6.578-3.628  C96.337,23.492,96.957,16.476,93.334,11.303z M35.232,88.984c-2.649,2.649-6.048,4.266-9.712,4.648l6.958-12.585l-0.467-0.971  c-2.191-4.576-6.88-7.532-11.944-7.532c-0.695,0-1.4,0.058-2.095,0.171l-0.479,0.079L10.13,86.123  c-3.946-6.279-3.078-14.611,2.276-19.965c3.165-3.166,7.535-4.882,12.022-4.707c4.066,0.146,7.904,1.817,10.804,4.707  c3.026,3.027,4.705,7.06,4.727,11.354C39.979,81.852,38.301,85.926,35.232,88.984z M71.764,36.119l-25.999,26  c-0.9,0.9-1.719,1.904-2.433,2.983c-1.182,1.789-2.032,3.836-2.54,6.106c-0.897-2.398-2.286-4.603-4.147-6.464  c-1.836-1.83-4.013-3.206-6.375-4.105c2.258-0.514,4.293-1.357,6.072-2.523c1.09-0.714,2.097-1.53,2.993-2.427l26-26  c1.987-1.987,3.527-4.504,4.583-7.494l0.096-0.284c0.565,2.259,1.71,4.364,3.407,6.067c1.69,1.69,3.786,2.841,6.037,3.408  l-0.213,0.073C76.39,32.469,73.803,34.08,71.764,36.119z M84.69,29.607c-3.594,0.674-7.275-0.463-9.854-3.041  c-2.608-2.618-3.739-6.347-3.023-9.974c0.422-2.139,1.467-4.092,3.022-5.647c1.807-1.806,4.185-2.922,6.704-3.181l-4.211,7.626  l0.389,0.827c1.577,3.305,4.968,5.44,8.638,5.44c0.537,0,1.035-0.039,1.524-0.119l0.479-0.078l4.188-7.576  c2.067,4.173,1.288,9.282-2.104,12.683C88.875,28.144,86.887,29.195,84.69,29.607z M52,48v5c0,0.553-0.447,1-1,1s-1-0.447-1-1v-5  c0-0.552,0.447-1,1-1S52,47.448,52,48z M60,40v5c0,0.552-0.447,1-1,1s-1-0.448-1-1v-5c0-0.552,0.447-1,1-1S60,39.448,60,40z M56,44  v5c0,0.552-0.447,1-1,1s-1-0.448-1-1v-5c0-0.552,0.447-1,1-1S56,43.448,56,44z"/><text x="0" y="115" fill="#000000" font-size="5px" font-weight="bold" font-family="'Helvetica Neue', Helvetica, Arial-Unicode, Arial, Sans-serif">Created by Laymik</text><text x="0" y="120" fill="#000000" font-size="5px" font-weight="bold" font-family="'Helvetica Neue', Helvetica, Arial-Unicode, Arial, Sans-serif">from the Noun Project</text></svg>